<svg xmlns="http://www.w3.org/2000/svg" xmlns:xlink="http://www.w3.org/1999/xlink" viewBox="0 0 484.16 554.52"><defs><style>.cls-1{isolation:isolate;}.cls-2{fill:#414141;}.cls-3{fill:#333;}.cls-4{fill:#ccc;}.cls-5{mix-blend-mode:multiply;opacity:0.6;fill:url(#radial-gradient);}</style><radialGradient id="radial-gradient" cx="242.08" cy="569.05" r="232.5" gradientTransform="translate(0 441.01) scale(1 0.14)" gradientUnits="userSpaceOnUse"><stop offset="0"/><stop offset="0.08" stop-color="#313131"/><stop offset="0.17" stop-color="#616161"/><stop offset="0.26" stop-color="#8b8b8b"/><stop offset="0.36" stop-color="#afafaf"/><stop offset="0.46" stop-color="#ccc"/><stop offset="0.57" stop-color="#e3e3e3"/><stop offset="0.69" stop-color="#f3f3f3"/><stop offset="0.82" stop-color="#fcfcfc"/><stop offset="1" stop-color="#fff"/></radialGradient></defs><g class="cls-1"><g id="Layer_2" data-name="Layer 2"><g id="Layer_2-2" data-name="Layer 2"><path class="cls-2" d="M473.87,242.91l-8.41-64.46.75.66-.94-2.05v0l0-.07-27.66-60.8,0-.07L389,63.72l-.06-.09L262.7,12.54l-132.87,29-.26,0-.13.24L36.07,140.67l0,.11L12.11,208.87l0,.09,2.72,66-.48.43.5.16.07,1.64.41-.85L73.07,398.22l.07.14,50.15,29.34.08.11h.1l0,.22.15-.12,67.09,39.24,135.65-8.67.24.08.18-.23,106.45-85.24.26-.09v-.28L473.84,243ZM95.17,109.29,16.33,271.93,37,141.22Zm35-66.73,56.09,6L97.6,106.65ZM317.74,162.31l146.38,15.32L430.48,277.79ZM252.65,431.8,125,426.87,281,305.16ZM16.29,275,129.56,172.88,106.34,303.26ZM317,161.14,328.44,58,463.28,176.54,317,161.24l0-.1ZM130.64,172.5,280.43,303.4H107.33ZM281.46,303h0L131.56,172l184.21-9.76L281.47,303ZM131.11,171,187.85,49,315.17,161.24ZM316,160.66,189.11,48.76,327.5,57.44Zm-185.74,9.75L97.37,108l89.12-58.45Zm-.6,1L16.87,273.09,96.59,108.66Zm150.62,133-156,121.77-17-121.79Zm36.39-141.73,113,115.72L282.42,303.28Zm12.9-105,58.77,6.85,73.86,109.77Zm-1.32-1.16h0L266.93,15.33,385,63.11Zm-2-.14L189.67,47.79l72.94-34.16Zm-220,247.94L123.2,425.85,16.58,276.1Zm145.1,128.46-60.52,33.32L125.61,427.9Zm1.85.12L324,457.63,193.06,466Zm1.54-.53,123.58-39.83-52.06,64.87Zm-1.06-.7,28.35-126.8,96.75,86.47Zm127-41,49.51-110,2.27,91.63Zm-1.12,0L283.07,304.4h0l-.21-.18L429.72,279.4Zm85-211.28,8.26,63.24-41,34.19Zm-2.73-7.5L392.66,69.1l44,47.54ZM258.4,14.5,187.6,47.65,133,41.86ZM95.92,107.74,39.08,138.93l88.76-94ZM35.19,146.25,15.6,270.13l-2.52-61Zm38.72,251.4L18.18,280.08,121.87,425.71Zm255.78,57.09,50.4-62.8,50.3-17.83ZM431.21,279.15l.5-.09-.43-.44,41.1-34.29L433.44,369.6Z"/><polygon class="cls-3" points="187.18 47.39 174.65 40.16 168.47 36.59 168.47 58.2 187.18 69 187.18 47.39"/><polygon class="cls-3" points="188.18 69 206.89 58.2 206.89 36.59 200.35 40.37 188.18 47.39 188.18 69"/><polygon class="cls-3" points="168.97 35.73 187.68 46.53 206.39 35.73 187.68 24.93 168.97 35.73"/><path class="cls-4" d="M187.93,23.91a.55.55,0,0,0-.5,0L167.72,35.29a.52.52,0,0,0-.25.44V58.49a.52.52,0,0,0,.25.43L187.43,70.3a.57.57,0,0,0,.25.06.51.51,0,0,0,.25-.06l19.71-11.38a.5.5,0,0,0,.25-.43V35.73a.5.5,0,0,0-.25-.44Zm19,12.68V58.2L188.18,69V47.39l12.17-7Zm-.5-.86-18.71,10.8L169,35.73l18.71-10.8Zm-37.92.86,6.18,3.57,12.53,7.23V69L168.47,58.2Z"/><polygon class="cls-3" points="463.45 174.18 450.91 166.94 444.74 163.38 444.74 184.98 463.45 195.78 463.45 174.18"/><polygon class="cls-3" points="464.45 195.78 483.16 184.98 483.16 163.38 476.99 166.94 464.45 174.18 464.45 195.78"/><polygon class="cls-3" points="445.24 162.51 463.95 173.32 482.66 162.51 463.95 151.71 445.24 162.51"/><path class="cls-4" d="M483.91,162.08,464.2,150.7a.5.5,0,0,0-.5,0L444,162.08a.5.5,0,0,0-.25.43v22.76a.5.5,0,0,0,.25.44l19.71,11.37a.43.43,0,0,0,.25.07.47.47,0,0,0,.25-.07l19.71-11.37a.52.52,0,0,0,.25-.44V162.51A.52.52,0,0,0,483.91,162.08Zm-1.25.43L464,173.32l-18.71-10.81L464,151.71Zm.5.87V185l-18.71,10.81V174.18L477,166.94Zm-38.42,0,6.17,3.56,12.54,7.24v21.61L444.74,185Z"/><polygon class="cls-3" points="97.67 105.66 88.98 100.64 85.21 98.47 85.21 112.85 97.67 120.04 97.67 105.66"/><path class="cls-4" d="M97.92,121.34a.45.45,0,0,0,.25.07.47.47,0,0,0,.25-.07l13.45-7.77a.48.48,0,0,0,.25-.43V97.6a.48.48,0,0,0-.25-.43L98.42,89.4a.5.5,0,0,0-.5,0L84.46,97.17a.5.5,0,0,0-.25.43v15.54a.5.5,0,0,0,.25.43ZM85.21,98.47,89,100.64l8.69,5V120l-12.46-7.19Zm25.91,0v14.38L98.67,120V105.66l8.69-5Zm-.5-.87-12.45,7.2L85.71,97.6l12.46-7.19Z"/><polygon class="cls-3" points="98.67 120.04 111.12 112.85 111.12 98.47 107.36 100.64 98.67 105.66 98.67 120.04"/><polygon class="cls-3" points="85.71 97.6 98.17 104.8 110.62 97.6 98.17 90.41 85.71 97.6"/><polygon class="cls-3" points="129.37 168.39 116.83 161.15 110.66 157.59 110.66 179.19 129.37 190 129.37 168.39"/><polygon class="cls-3" points="130.37 190 149.08 179.19 149.08 157.59 142.91 161.15 130.37 168.39 130.37 190"/><polygon class="cls-3" points="111.16 156.72 129.87 167.53 148.58 156.72 129.87 145.92 111.16 156.72"/><path class="cls-4" d="M130.12,144.91a.5.5,0,0,0-.5,0l-19.71,11.38a.52.52,0,0,0-.25.43v22.76a.49.49,0,0,0,.25.43l19.71,11.38a.48.48,0,0,0,.5,0l19.71-11.38a.49.49,0,0,0,.25-.43V156.72a.52.52,0,0,0-.25-.43Zm18.46,11.81-18.71,10.81-18.71-10.81,18.71-10.8Zm.5.87v21.6L130.37,190v-21.6l12.54-7.24Zm-38.42,0,6.17,3.56,12.54,7.24V190l-18.71-10.8Z"/><polygon class="cls-3" points="328.22 54.51 315.79 47.33 309.51 43.71 309.51 65.31 328.22 76.11 328.22 54.51"/><polygon class="cls-3" points="329.22 76.11 347.93 65.31 347.93 43.71 342.49 46.85 329.22 54.51 329.22 76.11"/><polygon class="cls-3" points="310.01 42.84 328.72 53.65 347.43 42.84 328.72 32.04 310.01 42.84"/><path class="cls-4" d="M329,31a.5.5,0,0,0-.5,0L308.76,42.41a.5.5,0,0,0-.25.43V65.6a.5.5,0,0,0,.25.43l19.71,11.38a.47.47,0,0,0,.25.07.45.45,0,0,0,.25-.07L348.68,66a.48.48,0,0,0,.25-.43V42.84a.48.48,0,0,0-.25-.43Zm19,12.68v21.6l-18.71,10.8V54.51l13.27-7.66Zm-.5-.87-18.71,10.8L310,42.84,328.72,32Zm-37.92.87,6.28,3.62,12.43,7.18v21.6l-18.71-10.8Z"/><polygon class="cls-3" points="281.26 301.77 254.03 286.05 254.03 317.49 281.26 333.21 281.26 301.77"/><polygon class="cls-3" points="282.26 333.21 309.49 317.49 309.49 286.05 282.26 301.77 282.26 333.21"/><polygon class="cls-3" points="254.53 285.19 281.76 300.91 308.99 285.19 281.76 269.47 254.53 285.19"/><path class="cls-4" d="M282,268.46a.5.5,0,0,0-.5,0l-28.23,16.29a.52.52,0,0,0-.25.44v32.59a.49.49,0,0,0,.25.43l28.23,16.3a.43.43,0,0,0,.25.07.47.47,0,0,0,.25-.07l28.23-16.3a.49.49,0,0,0,.25-.43V285.19a.52.52,0,0,0-.25-.44Zm27,16.73-27.23,15.72-27.23-15.72,27.23-15.72Zm-55,.86,27.23,15.72v31.44L254,317.49Zm55.46,31.44-27.23,15.72V301.77l27.23-15.72Z"/><polygon class="cls-3" points="106.23 299.61 87.52 288.81 87.52 310.41 106.23 321.21 106.23 299.61"/><polygon class="cls-3" points="125.94 288.81 107.23 299.61 107.23 321.21 125.94 310.41 125.94 288.81"/><path class="cls-4" d="M126.94,310.7V287.94a.47.47,0,0,0-.25-.43L107,276.13a.5.5,0,0,0-.5,0L86.77,287.51a.49.49,0,0,0-.25.43V310.7a.5.5,0,0,0,.25.43l19.71,11.38a.59.59,0,0,0,.25.07.55.55,0,0,0,.25-.07l19.71-11.38A.48.48,0,0,0,126.94,310.7Zm-19.71-11.09,18.71-10.81v21.61l-18.71,10.8Zm18.21-11.67-18.71,10.8L88,287.94l18.71-10.8Zm-37.92.86,18.71,10.81v21.6l-18.71-10.8Z"/><polygon class="cls-3" points="106.73 298.74 125.44 287.94 106.73 277.14 88.02 287.94 106.73 298.74"/><polygon class="cls-3" points="14.81 275.47 5.74 270.23 1 267.5 1 283.44 14.81 291.41 14.81 275.47"/><polygon class="cls-3" points="15.81 291.41 29.61 283.44 29.61 267.5 25.25 270.01 15.81 275.47 15.81 291.41"/><polygon class="cls-3" points="1.5 266.63 15.31 274.6 29.11 266.63 15.31 258.66 1.5 266.63"/><path class="cls-4" d="M15.56,257.65a.5.5,0,0,0-.5,0L.25,266.2a.5.5,0,0,0-.25.43v17.1a.5.5,0,0,0,.25.43l14.81,8.55a.52.52,0,0,0,.25.07.59.59,0,0,0,.25-.07l14.8-8.55a.48.48,0,0,0,.25-.43v-17.1a.48.48,0,0,0-.25-.43Zm14.05,9.85v15.94l-13.8,8V275.47L25.25,270Zm-.5-.87-13.8,8-13.81-8,13.81-8ZM1,267.5l4.74,2.73,9.07,5.24v15.94L1,283.44Z"/><polygon class="cls-3" points="326.03 454.78 312.23 446.81 312.23 462.75 326.03 470.72 326.03 454.78"/><polygon class="cls-3" points="327.03 470.72 340.84 462.75 340.84 446.81 327.03 454.78 327.03 470.72"/><polygon class="cls-3" points="312.73 445.94 326.53 453.91 340.34 445.94 326.53 437.97 312.73 445.94"/><path class="cls-4" d="M341.59,445.51,326.78,437a.5.5,0,0,0-.5,0l-14.8,8.55a.48.48,0,0,0-.25.43V463a.48.48,0,0,0,.25.43l14.8,8.55a.59.59,0,0,0,.25.07.52.52,0,0,0,.25-.07l14.81-8.55a.5.5,0,0,0,.25-.43v-17.1A.5.5,0,0,0,341.59,445.51Zm-15.06,8.4-13.8-8,13.8-8,13.81,8Zm-14.3-7.1,13.8,8v15.94l-13.8-8Zm28.61,15.94-13.81,8V454.78l13.81-8Z"/><polygon class="cls-3" points="379.29 388.3 365.48 380.32 365.48 396.27 379.29 404.24 379.29 388.3"/><polygon class="cls-3" points="380.29 404.24 394.09 396.27 394.09 380.32 380.29 388.3 380.29 404.24"/><polygon class="cls-3" points="365.98 379.46 379.79 387.43 393.59 379.46 379.79 371.49 365.98 379.46"/><path class="cls-4" d="M394.84,379,380,370.48a.5.5,0,0,0-.5,0L364.73,379a.5.5,0,0,0-.25.43v17.09a.52.52,0,0,0,.25.44l14.81,8.55a.54.54,0,0,0,.25.06.57.57,0,0,0,.25-.06l14.8-8.55a.5.5,0,0,0,.25-.44V379.46A.48.48,0,0,0,394.84,379Zm-15,8.4-13.81-8,13.81-8,13.8,8Zm-14.31-7.1,13.81,8v15.94l-13.81-8Zm28.61,15.94-13.8,8V388.3l13.8-8Z"/><polygon class="cls-3" points="315.92 159.23 306.85 153.99 302.11 151.26 302.11 167.2 315.92 175.17 315.92 159.23"/><path class="cls-4" d="M316.17,176.47a.52.52,0,0,0,.25.07.59.59,0,0,0,.25-.07l14.8-8.55a.5.5,0,0,0,.25-.43v-17.1a.5.5,0,0,0-.25-.43l-14.8-8.55a.5.5,0,0,0-.5,0L301.36,150a.5.5,0,0,0-.25.43v17.1a.5.5,0,0,0,.25.43Zm-14.06-25.21,4.74,2.73,9.07,5.24v15.94l-13.81-8Zm28.61,0V167.2l-13.8,8V159.23l9.88-5.71Zm-.5-.87-13.8,8-13.81-8,13.81-8Z"/><polygon class="cls-3" points="316.92 175.17 330.72 167.2 330.72 151.26 326.8 153.52 316.92 159.23 316.92 175.17"/><polygon class="cls-3" points="302.61 150.39 316.42 158.36 330.22 150.39 316.42 142.42 302.61 150.39"/><polygon class="cls-3" points="430.19 277.44 421.68 272.53 416.38 269.47 416.38 285.41 430.19 293.38 430.19 277.44"/><polygon class="cls-3" points="431.19 293.38 445 285.41 445 269.47 440.35 272.15 431.19 277.44 431.19 293.38"/><polygon class="cls-3" points="416.88 268.6 430.69 276.57 444.5 268.6 430.69 260.63 416.88 268.6"/><path class="cls-4" d="M430.94,259.62a.5.5,0,0,0-.5,0l-14.81,8.55a.52.52,0,0,0-.25.43v17.1a.5.5,0,0,0,.25.43l14.81,8.55a.48.48,0,0,0,.5,0l14.8-8.55a.48.48,0,0,0,.25-.43V268.6a.5.5,0,0,0-.25-.43Zm13.55,9-13.8,8-13.81-8,13.81-8Zm.5.87v15.94l-13.8,8V277.44l9.16-5.29Zm-28.61,0,5.3,3.06,8.51,4.91v15.94l-13.81-8Z"/><polygon class="cls-3" points="10.09 207.85 4.6 204.68 2.12 203.24 2.12 212.45 10.09 217.06 10.09 207.85"/><path class="cls-4" d="M10.34,218.36a.55.55,0,0,0,.5,0l9-5.19a.5.5,0,0,0,.25-.43V202.38a.52.52,0,0,0-.25-.44l-9-5.18a.5.5,0,0,0-.5,0l-9,5.18a.5.5,0,0,0-.25.44v10.36a.48.48,0,0,0,.25.43Zm8.73-15.12v9.21l-8,4.61v-9.21l5.14-3Zm-16.95,0,2.48,1.44,5.49,3.17v9.21l-8-4.61Zm16.45-.86-8,4.6-8-4.6,8-4.61Z"/><polygon class="cls-3" points="11.09 217.06 19.07 212.45 19.07 203.24 16.23 204.88 11.09 207.85 11.09 217.06"/><polygon class="cls-3" points="2.62 202.38 10.59 206.98 18.57 202.38 10.59 197.77 2.62 202.38"/><polygon class="cls-3" points="123.88 424.75 115.9 420.15 115.9 429.36 123.88 433.96 123.88 424.75"/><polygon class="cls-3" points="124.88 433.96 132.85 429.36 132.85 420.15 124.88 424.75 124.88 433.96"/><polygon class="cls-3" points="124.38 423.89 132.35 419.28 124.38 414.68 116.4 419.28 124.38 423.89"/><path class="cls-4" d="M133.6,418.85l-9-5.18a.5.5,0,0,0-.5,0l-9,5.18a.5.5,0,0,0-.25.43v10.37a.5.5,0,0,0,.25.43l9,5.18a.48.48,0,0,0,.5,0l9-5.18a.48.48,0,0,0,.25-.43V419.28A.48.48,0,0,0,133.6,418.85Zm-1.25.43-8,4.61-8-4.61,8-4.6Zm-16.45.87,8,4.6V434l-8-4.6Zm16.95,9.21-8,4.6v-9.21l8-4.6Z"/><polygon class="cls-3" points="190.63 464.81 182.66 460.21 182.66 469.42 190.63 474.02 190.63 464.81"/><polygon class="cls-3" points="191.63 474.02 199.61 469.42 199.61 460.21 191.63 464.81 191.63 474.02"/><polygon class="cls-3" points="191.13 463.95 199.11 459.34 191.13 454.74 183.16 459.34 191.13 463.95"/><path class="cls-4" d="M200.36,458.91l-9-5.18a.5.5,0,0,0-.5,0l-9,5.18a.48.48,0,0,0-.25.43v10.37a.5.5,0,0,0,.25.43l9,5.18a.47.47,0,0,0,.25.07.43.43,0,0,0,.25-.07l9-5.18a.52.52,0,0,0,.25-.43V459.34A.5.5,0,0,0,200.36,458.91Zm-1.25.43-8,4.61-8-4.61,8-4.6Zm-16.45.87,8,4.6V474l-8-4.6Zm17,9.21-8,4.6v-9.21l8-4.6Z"/><polygon class="cls-3" points="36.04 140.12 30.55 136.95 28.07 135.51 28.07 144.72 36.04 149.33 36.04 140.12"/><polygon class="cls-3" points="37.04 149.33 45.02 144.72 45.02 135.51 42.53 136.95 37.04 140.12 37.04 149.33"/><polygon class="cls-3" points="28.57 134.65 36.54 139.25 44.52 134.65 36.54 130.04 28.57 134.65"/><path class="cls-4" d="M36.79,129a.5.5,0,0,0-.5,0l-9,5.18a.52.52,0,0,0-.25.44V145a.5.5,0,0,0,.25.43l9,5.19a.55.55,0,0,0,.5,0l9-5.19A.5.5,0,0,0,46,145V134.65a.52.52,0,0,0-.25-.44Zm7.73,5.62-8,4.6-8-4.6,8-4.61Zm.5.86v9.21l-8,4.61v-9.21L42.53,137Zm-17,0L30.55,137,36,140.12v9.21l-8-4.61Z"/><polygon class="cls-3" points="388.15 63.86 382.66 60.69 380.18 59.26 380.18 68.47 388.15 73.07 388.15 63.86"/><polygon class="cls-3" points="389.15 73.07 397.13 68.47 397.13 59.26 394.64 60.69 389.15 63.86 389.15 73.07"/><polygon class="cls-3" points="380.68 58.39 388.65 62.99 396.63 58.39 388.65 53.78 380.68 58.39"/><path class="cls-4" d="M388.9,52.77a.5.5,0,0,0-.5,0l-9,5.19a.48.48,0,0,0-.25.43V68.75a.5.5,0,0,0,.25.44l9,5.18a.48.48,0,0,0,.5,0l9-5.18a.52.52,0,0,0,.25-.44V58.39a.5.5,0,0,0-.25-.43Zm7.73,5.62-8,4.6-8-4.6,8-4.61Zm.5.87v9.2l-8,4.61V63.86l5.49-3.17Zm-16.95,0,2.48,1.43,5.49,3.17v9.21l-8-4.61Z"/><polygon class="cls-3" points="436.99 113.85 431.49 110.68 429.01 109.25 429.01 118.46 436.99 123.06 436.99 113.85"/><path class="cls-4" d="M437.23,124.36a.59.59,0,0,0,.25.07.52.52,0,0,0,.25-.07l9-5.18a.52.52,0,0,0,.25-.43V108.38a.5.5,0,0,0-.25-.43l-9-5.18a.5.5,0,0,0-.5,0l-9,5.18a.48.48,0,0,0-.25.43v10.37a.5.5,0,0,0,.25.43ZM429,109.25l2.48,1.43,5.49,3.17v9.21l-8-4.6Zm16.95,0v9.21l-8,4.6v-9.21l5.5-3.17Zm-.5-.87-8,4.61-8-4.61,8-4.6Z"/><polygon class="cls-3" points="437.99 123.06 445.96 118.46 445.96 109.25 443.48 110.68 437.99 113.85 437.99 123.06"/><polygon class="cls-3" points="429.51 108.38 437.49 112.99 445.46 108.38 437.49 103.78 429.51 108.38"/><polygon class="cls-3" points="432.74 371.2 424.76 366.6 424.76 375.81 432.74 380.41 432.74 371.2"/><polygon class="cls-3" points="433.74 380.41 441.71 375.81 441.71 366.6 433.74 371.2 433.74 380.41"/><polygon class="cls-3" points="433.24 370.33 441.21 365.73 433.24 361.12 425.26 365.73 433.24 370.33"/><path class="cls-4" d="M442.46,365.3l-9-5.19a.5.5,0,0,0-.5,0l-9,5.19a.5.5,0,0,0-.25.43v10.36a.52.52,0,0,0,.25.44l9,5.18a.52.52,0,0,0,.25.07.59.59,0,0,0,.25-.07l9-5.18a.5.5,0,0,0,.25-.44V365.73A.48.48,0,0,0,442.46,365.3Zm-1.25.43-8,4.6-8-4.6,8-4.61Zm-16.45.87,8,4.6v9.21l-8-4.61Zm16.95,9.2-8,4.61V371.2l8-4.6Z"/><polygon class="cls-3" points="472.86 241.32 467.37 238.15 464.89 236.72 464.89 245.93 472.86 250.53 472.86 241.32"/><polygon class="cls-3" points="473.86 250.53 481.84 245.93 481.84 236.72 478.71 238.52 473.86 241.32 473.86 250.53"/><polygon class="cls-3" points="465.39 235.85 473.36 240.45 481.34 235.85 473.36 231.24 465.39 235.85"/><path class="cls-4" d="M473.61,230.23a.5.5,0,0,0-.5,0l-9,5.19a.48.48,0,0,0-.25.43v10.36a.5.5,0,0,0,.25.44l9,5.18a.59.59,0,0,0,.25.07.55.55,0,0,0,.25-.07l9-5.18a.52.52,0,0,0,.25-.44V235.85a.5.5,0,0,0-.25-.43Zm8.23,6.49v9.2l-8,4.61v-9.21l4.85-2.8Zm-.5-.87-8,4.6-8-4.6,8-4.61Zm-16.45.87,2.48,1.43,5.49,3.17v9.21l-8-4.61Z"/><polygon class="cls-3" points="129.37 40.8 123.88 37.63 121.39 36.2 121.39 45.41 129.37 50.01 129.37 40.8"/><path class="cls-4" d="M129.62,51.31a.48.48,0,0,0,.5,0l9-5.18a.52.52,0,0,0,.25-.43V35.33a.5.5,0,0,0-.25-.43l-9-5.18a.5.5,0,0,0-.5,0l-9,5.18a.5.5,0,0,0-.25.43V45.7a.52.52,0,0,0,.25.43ZM121.39,36.2l2.49,1.43,5.49,3.17V50l-8-4.6Zm17,0v9.21l-8,4.6V40.8l5.49-3.17Zm-.5-.87-8,4.61-8-4.61,8-4.6Z"/><polygon class="cls-3" points="130.37 50.01 138.35 45.41 138.35 36.2 135.86 37.63 130.37 40.8 130.37 50.01"/><polygon class="cls-3" points="121.89 35.33 129.87 39.94 137.85 35.33 129.87 30.73 121.89 35.33"/><polygon class="cls-3" points="262.15 11.15 256.66 7.98 254.18 6.55 254.18 15.76 262.15 20.36 262.15 11.15"/><path class="cls-4" d="M262.4,21.66a.47.47,0,0,0,.25.07.43.43,0,0,0,.25-.07l9-5.18a.52.52,0,0,0,.25-.43V5.68a.5.5,0,0,0-.25-.43l-9-5.18a.5.5,0,0,0-.5,0l-9,5.18a.48.48,0,0,0-.25.43V16.05a.5.5,0,0,0,.25.43ZM254.18,6.55,256.66,8l5.49,3.17v9.21l-8-4.6Zm16.95,0v9.21l-8,4.6V11.15L268.64,8Zm-.5-.87-8,4.61-8-4.61,8-4.6Z"/><polygon class="cls-3" points="263.15 20.36 271.13 15.76 271.13 6.55 268.64 7.98 263.15 11.15 263.15 20.36"/><polygon class="cls-3" points="254.68 5.68 262.65 10.29 270.63 5.68 262.65 1.08 254.68 5.68"/><polygon class="cls-3" points="253.03 428.62 234.32 417.82 234.32 439.43 253.03 450.23 253.03 428.62"/><polygon class="cls-3" points="254.03 450.23 272.74 439.43 272.74 417.82 254.03 428.62 254.03 450.23"/><polygon class="cls-3" points="253.53 427.76 272.24 416.96 253.53 406.15 234.82 416.96 253.53 427.76"/><path class="cls-4" d="M273.49,416.52l-19.71-11.38a.5.5,0,0,0-.5,0l-19.71,11.38a.52.52,0,0,0-.25.44v22.75a.52.52,0,0,0,.25.44l19.71,11.38a.55.55,0,0,0,.5,0l19.71-11.38a.52.52,0,0,0,.25-.44V417A.52.52,0,0,0,273.49,416.52Zm-1.25.44-18.71,10.8L234.82,417l18.71-10.81Zm-37.92.86L253,428.62v21.61l-18.71-10.8Zm38.42,21.61L254,450.23V428.62l18.71-10.8Z"/><polygon class="cls-3" points="72.51 398.24 53.8 387.44 53.8 409.04 72.51 419.84 72.51 398.24"/><polygon class="cls-3" points="92.22 387.44 73.51 398.24 73.51 419.84 92.22 409.04 92.22 387.44"/><polygon class="cls-3" points="73.01 397.37 91.72 386.57 73.01 375.77 54.3 386.57 73.01 397.37"/><path class="cls-4" d="M93,386.14,73.26,374.76a.5.5,0,0,0-.5,0L53.05,386.14a.5.5,0,0,0-.25.43v22.76a.5.5,0,0,0,.25.43l19.71,11.38a.48.48,0,0,0,.5,0L93,409.76a.5.5,0,0,0,.25-.43V386.57A.5.5,0,0,0,93,386.14Zm-19.46,12.1,18.71-10.8V409l-18.71,10.8Zm18.21-11.67L73,397.37,54.3,386.57,73,375.77Zm-37.92.87,18.71,10.8v21.6L53.8,409Z"/><ellipse class="cls-5" cx="242.08" cy="521.59" rx="232.49" ry="32.92"/></g></g></g></svg>